<?xml version="1.0" standalone="no"?>
<!DOCTYPE svg PUBLIC "-//W3C//DTD SVG 20010904//EN"
 "http://www.w3.org/TR/2001/REC-SVG-20010904/DTD/svg10.dtd">
<svg version="1.0" xmlns="http://www.w3.org/2000/svg"
 width="241.000000pt" height="93.000000pt" viewBox="0 0 241.000000 93.000000"
 preserveAspectRatio="xMidYMid meet">

<g transform="translate(0.000000,93.000000) scale(0.100000,-0.100000)"
fill="#000000" stroke="none">
<path d="M678 703 c7 -3 16 -2 19 1 4 3 -2 6 -13 5 -11 0 -14 -3 -6 -6z"/>
<path d="M403 495 l-60 -165 28 0 c24 0 30 6 40 40 l12 41 70 -3 70 -3 12 -35
c9 -27 18 -36 39 -38 33 -4 36 -20 -38 181 -51 136 -54 142 -83 145 l-29 3
-61 -166z m116 33 c12 -34 21 -66 21 -70 0 -4 -22 -8 -50 -8 -27 0 -50 2 -50
4 0 4 22 66 39 109 6 15 12 27 15 27 2 0 14 -28 25 -62z"/>
<path d="M875 638 c-27 -15 -35 -28 -35 -56 0 -15 -7 -26 -20 -29 -11 -3 -20
-12 -20 -19 0 -8 9 -14 20 -14 19 0 20 -7 20 -90 0 -83 1 -90 20 -90 19 0 20
7 20 90 0 89 0 90 25 90 18 0 25 5 25 20 0 15 -7 20 -26 20 -21 0 -25 4 -22
23 2 17 10 22 32 22 32 1 47 22 25 36 -19 12 -40 11 -64 -3z"/>
<path d="M183 575 c0 -38 2 -53 4 -32 2 20 2 52 0 70 -2 17 -4 1 -4 -38z"/>
<path d="M1119 624 c-10 -12 -9 -18 3 -31 19 -18 38 -10 38 17 0 24 -25 33
-41 14z"/>
<path d="M1219 624 c-10 -12 -9 -18 3 -31 19 -18 38 -10 38 17 0 24 -25 33
-41 14z"/>
<path d="M742 600 c0 -19 2 -27 5 -17 2 9 2 25 0 35 -3 9 -5 1 -5 -18z"/>
<path d="M2160 595 c0 -8 -9 -24 -20 -35 -24 -24 -26 -40 -5 -40 12 0 15 -15
15 -73 0 -86 14 -107 73 -107 31 0 37 3 37 21 0 17 -4 20 -22 16 -36 -10 -48
10 -48 79 l0 64 30 0 c23 0 30 4 30 20 0 16 -7 20 -30 20 -25 0 -30 4 -30 25
0 16 -6 25 -15 25 -8 0 -15 -7 -15 -15z"/>
<path d="M960 450 c0 -103 1 -110 20 -110 18 0 20 7 20 63 0 80 16 111 58 115
24 2 32 8 32 23 0 22 -38 26 -71 9 -13 -7 -19 -7 -19 0 0 5 -9 10 -20 10 -19
0 -20 -7 -20 -110z"/>
<path d="M1120 450 c0 -103 1 -110 20 -110 19 0 20 7 20 110 0 103 -1 110 -20
110 -19 0 -20 -7 -20 -110z"/>
<path d="M1210 450 l0 -110 25 0 25 0 0 110 0 110 -25 0 -25 0 0 -110z"/>
<path d="M1310 450 l0 -110 25 0 c25 0 25 1 25 79 0 87 10 105 57 99 l28 -3 3
-87 c3 -86 3 -88 27 -88 25 0 25 1 25 84 0 69 -4 88 -21 110 -22 28 -73 35
-110 16 -13 -7 -19 -7 -19 0 0 5 -9 10 -20 10 -19 0 -20 -7 -20 -110z"/>
<path d="M1520 553 c0 -4 17 -53 38 -108 34 -89 41 -100 62 -100 22 0 29 11
62 95 44 112 45 122 17 118 -17 -2 -27 -19 -47 -75 -14 -40 -28 -73 -31 -73
-4 0 -18 33 -32 73 -20 56 -31 73 -47 75 -12 2 -22 0 -22 -5z"/>
<path d="M1765 534 c-31 -34 -40 -92 -22 -137 20 -46 45 -59 110 -55 44 3 52
6 55 24 3 20 -1 21 -49 16 -43 -4 -55 -2 -66 13 -27 37 -17 45 57 45 68 0 70
1 70 26 0 56 -37 93 -93 94 -28 0 -44 -7 -62 -26z m103 -36 c3 -15 -4 -18 -43
-18 -43 0 -45 1 -35 21 14 26 73 24 78 -3z"/>
<path d="M1972 544 c-26 -18 -29 -56 -6 -79 9 -9 34 -23 55 -32 26 -10 39 -21
39 -34 0 -23 -31 -29 -85 -15 -20 5 -25 3 -25 -13 0 -23 19 -31 73 -31 48 0
59 6 76 38 19 37 4 62 -56 89 -29 14 -52 30 -50 36 2 7 25 12 52 12 49 0 72
18 44 36 -23 14 -93 10 -117 -7z"/>
<path d="M731 524 c0 -11 3 -14 6 -6 3 7 2 16 -1 19 -3 4 -6 -2 -5 -13z"/>
<path d="M721 474 c0 -11 3 -14 6 -6 3 7 2 16 -1 19 -3 4 -6 -2 -5 -13z"/>
<path d="M671 333 c-10 -26 -10 -27 4 -9 8 11 15 23 15 28 0 15 -7 8 -19 -19z"/>
<path d="M619 253 c-13 -16 -12 -17 4 -4 9 7 17 15 17 17 0 8 -8 3 -21 -13z"/>
</g>
</svg>
